HIERARCHY
ROOT Hips
{
  OFFSET -2.51758 106.802 -17.7858
  CHANNELS 6 Xposition Yposition Zposition Zrotation Xrotation Yrotation
  JOINT ToSpine
  {
    OFFSET -2.69724 7.43032 -0.144315
    CHANNELS 3 Zrotation Xrotation Yrotation
    JOINT Spine
    {
      OFFSET -0.0310711 10.7595 1.96963
      CHANNELS 3 Zrotation Xrotation Yrotation
      JOINT Spine1
      {
        OFFSET 19.9056 3.91189 0.764692
        CHANNELS 3 Zrotation Xrotation Yrotation
        JOINT Neck
        {
          OFFSET 25.9749 7.03908 -0.130764
          CHANNELS 3 Zrotation Xrotation Yrotation
          JOINT Head
          {
            OFFSET 9.52751 0.295786 -0.907742
            CHANNELS 3 Zrotation Xrotation Yrotation
            End Site
            {
              OFFSET 16.4037 0.713936 2.7358
            }
          }
        }
        JOINT LeftShoulder
        {
          OFFSET 17.7449 4.33886 11.7777
          CHANNELS 3 Zrotation Xrotation Yrotation
          JOINT LeftArm
          {
            OFFSET 0.911315 1.27913 9.80584
            CHANNELS 3 Zrotation Xrotation Yrotation
            JOINT LeftForeArm
            {
              OFFSET 28.6126 1.18197 -3.53199
              CHANNELS 3 Zrotation Xrotation Yrotation
              JOINT LeftHand
              {
                OFFSET 27.5088 0.0218783 0.327423
                CHANNELS 3 Zrotation Xrotation Yrotation
                End Site
                {
                  OFFSET 18.6038 -0.000155887 0.382096
                }
              }
            }
          }
        }
        JOINT RightShoulder
        {
          OFFSET 17.1009 2.89543 -12.2328
          CHANNELS 3 Zrotation Xrotation Yrotation
          JOINT RightArm
          {
            OFFSET 1.4228 0.178766 -10.211
            CHANNELS 3 Zrotation Xrotation Yrotation
            JOINT RightForeArm
            {
              OFFSET 28.733 1.87905 2.64907
              CHANNELS 3 Zrotation Xrotation Yrotation
              JOINT RightHand
              {
                OFFSET 27.4588 0.290562 -0.101845
                CHANNELS 3 Zrotation Xrotation Yrotation
                End Site
                {
                  OFFSET 17.8396 -0.255518 -0.000602873
                }
              }
            }
          }
        }
      }
    }
  }
  JOINT LeftUpLeg
  {
    OFFSET -5.61296 -2.22332 -10.2353
    CHANNELS 3 Zrotation Xrotation Yrotation
    JOINT LeftLeg
    {
      OFFSET 2.56703 -44.7417 -7.93097
      CHANNELS 3 Zrotation Xrotation Yrotation
      JOINT LeftFoot
      {
        OFFSET 3.16933 -46.5642 -3.96578
        CHANNELS 3 Zrotation Xrotation Yrotation
        JOINT LeftToeBase
        {
          OFFSET 0.346054 -6.02161 12.8035
          CHANNELS 3 Zrotation Xrotation Yrotation
          End Site
          {
            OFFSET 0.134235 -1.35082 5.13018
          }
        }
      }
    }
  }
  JOINT RightUpLeg
  {
    OFFSET -5.7928 -1.72406 10.6446
    CHANNELS 3 Zrotation Xrotation Yrotation
    JOINT RightLeg
    {
      OFFSET -2.57161 -44.7178 -7.85259
      CHANNELS 3 Zrotation Xrotation Yrotation
      JOINT RightFoot
      {
        OFFSET -3.10148 -46.5936 -4.03391
        CHANNELS 3 Zrotation Xrotation Yrotation
        JOINT RightToeBase
        {
          OFFSET -0.0828122 -6.13587 12.8035
          CHANNELS 3 Zrotation Xrotation Yrotation
          End Site
          {
            OFFSET -0.131328 -1.35082 5.13018
          }
        }
      }
    }
  }
}
MOTION
Frames:	18
Frame Time:	0.0333333
-2.57258 106.769 -16.5041 11.241 -72.5079 -78.2449 -70.1915 0 88.8779 67.5798 69.5768 17.6153 4.12512 18.9596 5.54627 -157.099 22.6957 178.273 -164.871 62.1997 -176.937 1.75654 -7.10425 -38.3269 -51.0592 38.6573 -118.517 -19.2187 -22.3451 -44.8449 -3.31552 0.176027 -4.65861 -0.1135 0.243475 49.8998 -68.4969 -32.4978 94.2196 -11.5334 10.7878 52.8034 -2.65619 -0.00451341 -0.221231 -58.4939 -0.272825 95.6259 2.71282 15.5552 -2.12588 4.46242 -2.28066 -0.726556 -0.128434 0.219608 2.07809 -61.7757 2.91107 81.6802 -1.09557 15.614 -2.33455 -5.81548 -3.1319 0.940667 -0.215747 -1.84407 -1.04314 
-2.58449 106.792 -16.4939 10.8853 -72.5038 -78.6318 -70.1915 0 88.8779 67.4065 69.5687 17.8767 4.17544 19.0221 5.40507 -156.772 22.5928 178.108 -164.507 62.0708 -176.833 1.76769 -7.04657 -38.1918 -51.0768 38.7939 -118.637 -19.055 -22.3253 -44.621 -3.52355 0.18817 -4.68029 -0.119708 0.26047 49.92 -68.4742 -32.6012 94.2567 -11.4665 10.7524 52.7545 -2.61897 -0.0051452 -0.157644 -58.4938 -0.28784 95.6045 2.72088 15.6077 -2.17972 4.59616 -2.09585 -0.733975 -0.35671 -0.316926 2.34573 -61.6258 2.88673 81.6849 -1.14034 15.8305 -2.3145 -5.1249 -3.27795 0.87876 -0.176573 -1.53496 -0.888226 
-2.5839 106.782 -16.4884 10.6264 -72.5465 -78.8956 -70.1915 0 88.8779 67.4415 69.6103 17.961 4.15162 19.0907 5.31946 -156.471 22.5812 178.032 -164.359 62.0485 -176.634 1.757 -7.09417 -38.2501 -50.9945 38.6742 -118.643 -19.3221 -22.5575 -44.7441 -3.60493 0.189643 -4.57019 -0.106552 0.22105 50.0048 -68.4002 -32.4549 94.2877 -11.4811 10.8054 52.6519 -2.60433 -0.0086472 -0.0445008 -58.5273 -0.221867 95.6805 2.65275 15.6226 -2.13859 4.60607 -2.14155 -0.736483 -0.331026 -0.258137 2.30689 -61.6396 2.91309 81.7178 -1.16388 15.8533 -2.2524 -5.18134 -3.2794 0.884179 -0.179983 -1.56384 -0.904141 
-2.5832 106.779 -16.4865 10.2707 -72.5791 -79.2634 -70.1915 0 88.8779 67.5064 69.6655 17.9496 4.07259 19.1377 5.33483 -156.212 22.5947 177.833 -163.687 62.0168 -176.872 1.75183 -7.11294 -38.2386 -50.9616 38.672 -118.654 -19.3766 -22.6756 -44.6843 -3.79575 0.202628 -4.65515 -0.0926911 0.181107 50.0408 -68.1852 -32.2799 94.3692 -11.5915 10.9168 52.6017 -2.56629 -0.0117813 0.0415896 -58.5947 -0.231913 95.6729 2.68194 15.546 -2.02104 4.57542 -2.12483 -0.732819 -0.325746 -0.247614 2.29291 -61.6375 2.90378 81.7088 -1.14529 15.8727 -2.13301 -5.20369 -3.27759 0.886323 -0.180001 -1.56531 -0.906209 
-2.58181 106.777 -16.4854 10.1601 -72.5812 -79.3913 -70.1915 0 88.8779 67.3653 69.657 18.1683 4.15181 19.1766 5.24517 -156.104 22.6297 177.574 -162.972 62.0075 -177.182 1.75564 -7.0992 -38.2479 -51.0588 38.6597 -118.654 -19.4346 -22.7899 -44.6352 -4.00253 0.20978 -4.52681 -0.0752454 0.133367 49.9783 -68.1578 -32.3702 94.5465 -11.4824 10.8915 52.4404 -2.565 -0.0147108 0.168172 -58.5903 -0.164639 95.7645 2.57195 15.5692 -2.04775 4.62359 -2.14685 -0.738439 -0.320463 -0.237091 2.27893 -61.638 2.89989 81.7124 -1.16104 15.8649 -2.09131 -5.19964 -3.27227 0.884791 -0.180019 -1.56679 -0.908277 
-2.58056 106.776 -16.4848 10.1703 -72.586 -79.361 -70.1915 0 88.8779 67.3992 69.6373 18.2485 4.20638 19.1803 5.16439 -156.303 22.6989 177.572 -162.936 62.0751 -177.376 1.75358 -7.11367 -38.3097 -51.0845 38.5902 -118.674 -19.4229 -22.8141 -44.5888 -3.97347 0.21089 -4.65007 -0.0824826 0.151531 50.0732 -68.2085 -32.2412 94.4945 -11.4456 10.85 52.4675 -2.56804 -0.0168433 0.246767 -58.5824 -0.152508 95.7631 2.58376 15.5893 -2.05491 4.61473 -2.15957 -0.73794 -0.315177 -0.226568 2.26495 -61.6628 2.90837 81.7045 -1.14128 15.8279 -2.09358 -5.20218 -3.25222 0.881128 -0.180037 -1.56826 -0.910345 
-2.58029 106.776 -16.4847 10.1456 -72.6199 -79.3788 -70.1915 0 88.8779 67.6249 69.6363 18.0253 4.13336 19.1454 5.18633 -156.349 22.7396 177.422 -162.556 62.087 -177.745 1.75291 -7.10898 -38.2406 -51.2501 38.7854 -118.578 -19.4003 -22.7032 -44.687 -3.9415 0.209334 -4.60382 -0.0964931 0.188089 50.1857 -68.1573 -32.0451 94.4342 -11.554 10.8945 52.5802 -2.57808 -0.0179652 0.218992 -58.6418 -0.204809 95.6995 2.67641 15.5296 -1.99574 4.55793 -2.13643 -0.731411 -0.309889 -0.216046 2.25097 -61.7098 2.93949 81.7256 -1.16608 15.7906 -2.09777 -5.20318 -3.23288 0.883134 -0.180055 -1.56973 -0.912414 
-2.58182 106.776 -16.4853 10.1051 -72.6294 -79.4335 -70.1915 0 88.8779 67.522 69.6302 18.1414 4.2034 19.1782 5.09212 -156.39 22.7458 176.973 -161.694 62.0211 -178.615 1.7422 -7.13359 -38.0802 -51.4481 39.0019 -118.652 -19.2668 -22.6077 -44.6005 -3.96965 0.207345 -4.41327 -0.0932969 0.17796 50.2337 -68.287 -32.0775 94.4383 -11.5372 10.8485 52.6599 -2.67274 -0.0186119 0.260588 -58.6257 -0.128713 95.7959 2.55735 15.5854 -2.04608 4.61154 -2.16775 -0.737883 -0.304597 -0.205524 2.23699 -61.6911 2.94386 81.7466 -1.19329 15.8371 -2.09659 -5.20026 -3.25522 0.885494 -0.180073 -1.5712 -0.914483 
-2.58663 106.777 -16.4882 10.1218 -72.6434 -79.4217 -70.1915 0 88.8779 67.3164 69.6294 18.3659 4.3301 19.1916 5.12497 -156.715 22.807 177.17 -161.987 62.1061 -178.598 1.72984 -7.18512 -38.1147 -51.4813 38.8892 -118.845 -19.2559 -22.6903 -44.4854 -4.001 0.206453 -4.42458 -0.0904493 0.174665 50.0443 -68.3332 -32.1473 94.5274 -11.5361 10.8015 52.7746 -2.69431 -0.0191597 0.33274 -58.6498 -0.172748 95.7517 2.61109 15.5604 -2.00621 4.57782 -2.15951 -0.734186 -0.299303 -0.195003 2.22301 -61.6944 2.92131 81.7245 -1.17263 15.86 -2.07756 -5.21385 -3.26541 0.886855 -0.18009 -1.57268 -0.916553 
-2.59496 106.778 -16.4909 10.0422 -72.6598 -79.5478 -70.1915 0 88.8779 67.0684 69.6327 18.5354 4.40218 19.2109 5.1619 -156.892 22.8187 177.094 -162.015 62.12 -178.735 1.73709 -7.1471 -38.0177 -51.7395 38.994 -119.1 -19.346 -22.9288 -44.3372 -4.2378 0.222164 -4.49572 -0.0964833 0.192376 50.0157 -68.2356 -32.0081 94.7976 -11.7518 10.978 52.7767 -2.71617 -0.0204235 0.383598 -58.6984 -0.20478 95.7498 2.59301 15.499 -1.94932 4.57376 -2.13744 -0.73306 -0.294006 -0.184483 2.20903 -61.6548 2.87059 81.7047 -1.17349 15.9573 -2.01541 -5.22246 -3.30863 0.888783 -0.180108 -1.57415 -0.918623 
-2.5954 106.779 -16.4894 9.9584 -72.7015 -79.6773 -70.1915 0 88.8779 66.7136 69.6436 18.8737 4.5209 19.2553 5.19474 -156.989 22.842 177.198 -162.075 62.1465 -178.789 1.74506 -7.09072 -37.7837 -52.1097 39.2389 -119.584 -19.9572 -23.8382 -44.1872 -5.19093 0.277689 -4.59667 -0.112025 0.243775 49.7293 -67.9334 -32.0703 95.2812 -11.7675 11.0635 52.5992 -2.42688 -0.0229681 0.643833 -58.7971 -0.229349 95.7725 2.56064 15.3956 -1.90927 4.58127 -2.09874 -0.732565 -0.288707 -0.173963 2.19505 -61.6537 2.83939 81.7087 -1.20443 16.0291 -1.96379 -5.21119 -3.34093 0.888571 -0.180127 -1.57562 -0.920694 
-2.60137 106.781 -16.4784 9.82599 -72.7242 -79.8743 -70.1915 0 88.8779 66.1263 69.655 19.2434 4.58511 19.2513 5.48602 -157.137 22.8566 177.499 -162.404 62.1867 -178.636 1.75685 -7.04311 -37.7676 -52.5227 39.1898 -119.955 -20.7402 -24.77 -44.2759 -5.77776 0.302164 -4.41843 -0.132301 0.313305 49.3228 -67.5336 -32.1207 95.8004 -11.9304 11.2057 52.5839 -2.09701 -0.0259953 0.751028 -58.9104 -0.301007 95.745 2.56352 15.2338 -1.80648 4.56486 -2.03812 -0.728919 -0.283404 -0.163444 2.18106 -61.6396 2.76108 81.6695 -1.19201 16.0967 -1.85645 -5.22622 -3.37387 0.890822 -0.180145 -1.57709 -0.922765 
-2.62551 106.783 -16.4606 9.09225 -72.8126 -80.6719 -70.1915 0 88.8779 65.4826 69.6701 19.9258 4.73741 19.3862 5.37043 -156.872 22.8448 177.391 -162.447 62.1742 -178.544 1.76778 -6.97269 -37.5268 -52.8644 39.1684 -120.639 -21.2801 -25.5828 -44.1697 -6.03024 0.321878 -4.54752 -0.141962 0.351635 48.9706 -66.7748 -32.0559 96.8495 -12.3893 11.6665 52.4179 -1.75827 -0.0272441 0.885134 -59.023 -0.128418 95.978 2.31626 15.2142 -1.74633 4.65735 -2.06939 -0.739421 -0.278099 -0.152926 2.16708 -61.6178 2.78669 81.734 -1.27062 16.2225 -1.66722 -5.21656 -3.42034 0.891133 -0.180163 -1.57857 -0.924836 
-2.66961 106.785 -16.5017 9.06202 -72.7939 -80.6768 -70.1915 0 88.8779 65.1283 69.6781 20.2315 4.54016 19.4071 5.5225 -156.197 22.9357 177.374 -162.399 62.2537 -178.324 1.74201 -7.0732 -37.5101 -53.0438 38.8365 -121.226 -21.6982 -26.0577 -44.2538 -5.62862 0.285153 -4.21901 -0.130939 0.337615 48.3821 -65.7754 -32.0899 98.2229 -12.6751 12.0888 52.0355 -1.08039 -0.023399 1.24388 -58.9647 -0.108911 95.9546 2.36243 15.2271 -1.74536 4.6032 -2.05036 -0.733273 -0.272791 -0.142408 2.15309 -61.5687 2.89824 81.829 -1.34285 16.2125 -1.76468 -5.21183 -3.39264 0.889977 -0.180181 -1.58004 -0.926908 
-2.63888 106.781 -16.6457 12.5029 -72.3467 -76.953 -70.1915 0 88.8779 65.1776 69.1361 20.0478 4.42013 18.8389 5.62833 -156.004 22.9771 177.219 -162.33 62.2815 -178.542 1.754 -7.02291 -37.4848 -53.2548 38.137 -121.979 -22.3725 -26.3817 -44.8273 -4.95689 0.222414 -3.55132 -0.102817 0.26626 47.9521 -65.0063 -31.8921 99.5662 -13.0929 12.3923 52.1549 -0.308656 -0.0121985 1.18359 -58.163 -0.275253 95.5744 2.70169 15.8112 -2.60388 4.52387 -2.10895 -0.727035 -0.26748 -0.13189 2.13911 -61.4315 2.93324 81.7276 -1.18048 15.9949 -2.87134 -5.21734 -3.33369 0.888955 -0.180199 -1.58151 -0.92898 
-2.65794 106.776 -16.6673 12.0747 -72.4625 -77.4684 -70.1915 0 88.8779 64.7204 69.1674 20.5593 4.49816 18.9843 5.47524 -155.793 22.9896 177.294 -162.816 62.3227 -178.312 1.74626 -7.01173 -37.1102 -53.0124 37.3618 -123.255 -23.1127 -26.7748 -45.405 -4.23533 0.188386 -3.5225 -0.0915705 0.241622 47.6575 -64.1358 -31.2887 101.091 -13.5525 12.7562 52.2263 0.568687 -0.000457222 0.948491 -58.3524 -0.283112 95.6347 2.62779 15.6352 -2.46498 4.53449 -2.03616 -0.725736 -0.262166 -0.121374 2.12512 -61.4389 2.87662 81.7126 -1.20534 16.1025 -2.6703 -5.22955 -3.35625 0.890675 -0.180218 -1.58299 -0.931053 
-2.67308 106.772 -16.7003 12.038 -72.5415 -77.5634 -70.1915 0 88.8779 64.1768 69.208 21.0426 4.43118 19.1022 5.49511 -155.16 23.0314 177.101 -162.665 62.3403 -178.437 1.72087 -7.05641 -36.596 -52.9427 36.6243 -124.75 -23.5913 -26.9858 -45.8122 -4.0019 0.170107 -3.28319 -0.0395347 0.104886 46.8065 -63.2731 -31.0986 103.142 -13.799 12.9643 52.2399 1.32703 0.0077569 0.774957 -58.4865 -0.321596 95.6425 2.60514 15.4987 -2.41579 4.53003 -1.96125 -0.722831 -0.256849 -0.110857 2.11113 -61.4546 2.79763 81.6584 -1.1782 16.186 -2.5711 -5.2588 -3.37686 0.89392 -0.180236 -1.58446 -0.933126 
-2.67887 106.773 -16.7555 12.1116 -72.5751 -77.5805 -70.1915 0 88.8779 63.57 69.1439 21.4043 4.30443 19.0847 5.6377 -154.454 22.9876 176.814 -162.549 62.2783 -178.485 1.74533 -6.92345 -36.2972 -53.3255 35.6634 -126.07 -24.1497 -26.9376 -46.5609 -3.60628 0.132476 -2.56329 -0.0111456 0.0350643 45.9786 -62.1455 -30.4162 105.466 -14.3614 13.4098 52.3211 1.91706 0.0179557 1.17163 -58.5586 -0.372906 95.663 2.51544 15.3773 -2.38794 4.57003 -1.87339 -0.724112 -0.25153 -0.100342 2.09715 -61.3506 2.70601 81.653 -1.21712 16.4004 -2.53917 -5.24306 -3.44887 0.894312 -0.180254 -1.58593 -0.9352 
